<svg xmlns="http://www.w3.org/2000/svg" viewBox="0 0 312 50"><defs><path id="a" d="M36.414 38.268l1.453-1.453V1.953L36.414.5H1.552L.099 1.953v34.862l1.453 1.453h34.862"/></defs><linearGradient id="b" gradientUnits="userSpaceOnUse" x1="18.93" y1="37.86" x2="18.93"><stop offset="0" stop-color="#e52329"/><stop offset="1" stop-color="#e74011"/></linearGradient><path fill="url(#b)" d="M36.404 37.86l1.456-1.456V1.456L36.404 0H1.456L0 1.456v34.948l1.456 1.456h34.948"/><path fill="#FFF" d="M18.541 33.037c1.124 0 1.92-.175 2.635-.525-.134-4.464-.242-21.798-.242-21.798h.325l7.328-2.299-.009-.564-7.381-2.622-11.056-.001-.428.595-.001 4.412.43.535h6.02c-.014.025-.158 17.317-.258 21.74.785.325 1.513.527 2.637.527z"/><linearGradient id="c" gradientUnits="userSpaceOnUse" x1="180.59" y1="28.967" x2="180.59" y2="-7.685"><stop offset="0" stop-color="#00304d"/><stop offset=".008" stop-color="#01314e"/><stop offset=".433" stop-color="#1f5072"/><stop offset=".779" stop-color="#316488"/><stop offset="1" stop-color="#386b90"/></linearGradient><path fill="url(#c)" d="M65.408 36.696h4.014l2.179-8.141c.688-2.18 2.522-11.01 2.522-11.01l.46.115s-.517 8.715-.517 12.614v7.57h11.468V0H71.199l-2.924 11.353c-.344 1.262-.688 3.899-.688 3.899h-.344s-.344-2.637-.688-3.9L63.63 0H49.296v37.843h11.468v-7.569c0-3.899-.516-12.614-.516-12.614l.458-.115s1.835 8.83 2.523 11.01l2.18 8.141m51.823-28.669h-11.41l-2.352 9.748-.573 5.733h-.745l-.631-5.733-2.752-9.748H87.415l9.002 29.816h2.18l-.23 1.033c-.344 1.26-1.318 1.72-2.637 1.72-1.147 0-2.638-.23-2.638-.23l-1.09 1.033s-.458 3.325-.974 7.223c0 0 2.638 1.377 6.709 1.377 6.135 0 9.116-2.982 10.78-9.289l8.715-32.683m17.328 29.816h11.468V0H134.56v14.278h-4.013V0h-11.468v37.843h11.468V23.68h4.013v14.163m17.174-29.759s-.745 3.44-1.26 8.774l1.031.687s3.039-.802 6.88-.802c4.072 0 4.817.745 4.817 2.178v.173l-5.963.63c-5.046.517-8.945 3.44-8.945 8.945v1.148c0 5.16 3.44 8.715 8.658 8.715 3.326 0 5.218-1.147 6.823-2.81h.46c1.031 1.433 3.038 2.81 5.963 2.81 4.013 0 6.134-2.408 6.134-2.408s1.033-4.187 1.32-5.964l-.46-1.09-1.26-.229c-1.148-.23-1.262-.975-1.262-1.663v-8.371c0-7.741-4.129-11.468-14.851-11.468-4.759 0-8.085.745-8.085.745m9.404 21.847c-.86 0-1.376-.631-1.376-1.605v-.804c0-.917.344-1.892 1.319-2.179l2.121-.687v4.53s-1.09.745-2.064.745m29.57-12.845s.803-.343 1.663-.343c1.262 0 1.491.745 1.491 1.319v19.781h11.468V17.086s.803-.343 1.663-.343c1.261 0 1.49.745 1.49 1.319v19.781h11.468V15.768c0-4.874-3.039-8.43-8.085-8.43-3.956 0-6.135 1.893-7.683 3.671-1.377-2.18-3.785-3.67-6.938-3.67-4.243 0-6.422 2.122-8.027 4.072l-3.269-3.384h-6.708v29.816h11.468V17.086m43.87 0s.803-.343 1.663-.343c1.261 0 1.49.745 1.49 1.319v19.781H249.2V17.086s.803-.343 1.663-.343c1.262 0 1.49.745 1.49 1.319v19.781h11.469V15.768c0-4.874-3.039-8.43-8.085-8.43-3.957 0-6.135 1.893-7.684 3.671-1.376-2.18-3.784-3.67-6.937-3.67-4.243 0-6.422 2.122-8.028 4.072l-3.268-3.384h-6.709v29.816h11.468V17.086m56.17 8.716s.516-3.21.516-5.275v-.975c0-8.314-3.784-12.213-10.952-12.213h-1.319c-7.167 0-12.843 4.931-12.843 14.392v2.064c0 10.15 5.275 14.737 14.047 14.737 6.423 0 10.035-2.122 10.035-2.122a114.371 114.371 0 0 0-.402-8.027l-.802-.459s-3.842 1.203-7.225 1.203c-3.67 0-4.186-1.203-4.186-2.752v-.573h13.13m-13.13-8.199c0-1.778.976-2.581 1.95-2.581 1.032 0 1.49.574 1.49 1.892v3.269h-3.44v-2.58m27.616 20.24V18.635s.745-.459 2.293-.459c1.261 0 2.35.344 2.35.344l1.262-.63.746-10.436s-.746-.115-1.606-.115c-3.9 0-5.505 2.122-6.651 3.899h-.115l-3.039-3.21h-6.708v29.815h11.468"/></svg>